<svg width="81" height="81" viewBox="0 0 81 81" fill="none" xmlns="http://www.w3.org/2000/svg">
<g clip-path="url(#clip0_15_583)">
<path d="M40.5 0C18.13 0 0 18.13 0 40.5C0 62.87 18.13 81 40.5 81C62.87 81 81 62.87 81 40.5C81 18.13 62.87 0 40.5 0ZM37.7 16.48C37.7 14.93 38.95 13.68 40.5 13.68C42.05 13.68 43.3 14.93 43.3 16.48V28.71C43.3 30.26 42.05 31.51 40.5 31.51C38.95 31.51 37.7 30.26 37.7 28.71V16.48ZM40.5 67.32C27.56 67.32 17.03 56.79 17.03 43.85C17.03 36.6 20.31 29.87 26.03 25.38C27.25 24.42 29.01 24.64 29.97 25.86C30.93 27.08 30.71 28.84 29.49 29.8C25.14 33.21 22.64 38.34 22.64 43.86C22.64 53.71 30.65 61.71 40.5 61.71C50.35 61.71 58.36 53.7 58.36 43.86C58.36 38.34 55.86 33.22 51.51 29.8C50.29 28.84 50.08 27.08 51.03 25.86C51.99 24.64 53.75 24.43 54.97 25.38C60.69 29.87 63.97 36.6 63.97 43.85C63.97 56.79 53.44 67.32 40.5 67.32Z" fill="#C2AA9A"/>
</g>
<defs>
<clipPath id="clip0_15_583">
<rect width="81" height="81" fill="white"/>
</clipPath>
</defs>
</svg>
